<svg width="52" height="52" viewBox="0 0 52 52" fill="none" xmlns="http://www.w3.org/2000/svg">
<rect width="52" height="52" rx="26" fill="#1C1C1C"/>
<path d="M36.8429 21.1818C35.5857 22.6136 33.2286 24.0455 30.7143 24.0455C28.3571 24.0455 26.9429 23.25 25.6857 22.6136C24.4286 22.1364 23.1714 21.3409 21.1286 21.3409C19.2429 21.3409 17.5143 22.4545 16.5714 23.4091L15 21.0227C16.4143 19.5909 18.6143 18 21.1286 18C23.4857 18 24.9 18.9545 26.1571 19.4318C27.4143 19.9091 28.6714 20.8636 30.7143 20.8636C32.6 20.8636 34.3286 19.5909 35.2714 18.6364L36.8429 21.1818ZM37 28.9773C35.5857 30.4091 33.3857 32 30.8714 32C28.5143 32 27.1 31.2045 25.8429 30.5682C24.5857 30.0909 23.3286 29.1364 21.2857 29.1364C19.4 29.1364 17.6714 30.4091 16.7286 31.3636L15.1571 28.8182C16.5714 27.3864 18.7714 25.7955 21.2857 25.7955C23.6429 25.7955 25.0571 26.5909 26.3143 27.2273C27.5714 27.7045 28.8286 28.5 30.8714 28.5C32.7571 28.5 34.4857 27.2273 35.4286 26.2727L37 28.9773Z" fill="#FF630B"/>
</svg>
